<mxfile host="app.diagrams.net" modified="2020-05-28T21:08:07.749Z" agent="5.0 (Windows NT 10.0; Win64; x64) AppleWebKit/537.36 (KHTML, like Gecko) Chrome/83.0.4103.61 Safari/537.36" etag="090V5sWEI0CJKYqHWgZl" version="13.1.5" type="github">
  <diagram id="xHOJisQdkb2OtT_eh4bX" name="Page-1">
    <mxGraphModel dx="1606" dy="1062" grid="1" gridSize="10" guides="1" tooltips="1" connect="1" arrows="1" fold="1" page="1" pageScale="1" pageWidth="827" pageHeight="1169" math="0" shadow="0">
      <root>
        <mxCell id="0" />
        <mxCell id="1" parent="0" />
        <mxCell id="XplwRi0R-BkFfsx55WH8-6" style="edgeStyle=orthogonalEdgeStyle;rounded=0;orthogonalLoop=1;jettySize=auto;html=1;" parent="1" source="XplwRi0R-BkFfsx55WH8-1" edge="1">
          <mxGeometry relative="1" as="geometry">
            <mxPoint x="-4" y="766" as="targetPoint" />
          </mxGeometry>
        </mxCell>
        <mxCell id="XplwRi0R-BkFfsx55WH8-9" value="" style="edgeStyle=orthogonalEdgeStyle;rounded=0;orthogonalLoop=1;jettySize=auto;html=1;entryX=0.431;entryY=0.95;entryDx=0;entryDy=0;entryPerimeter=0;" parent="1" source="XplwRi0R-BkFfsx55WH8-1" target="XplwRi0R-BkFfsx55WH8-8" edge="1">
          <mxGeometry relative="1" as="geometry">
            <Array as="points">
              <mxPoint x="81" y="748" />
              <mxPoint x="76" y="748" />
              <mxPoint x="76" y="816" />
              <mxPoint x="-99" y="816" />
              <mxPoint x="-99" y="895" />
            </Array>
          </mxGeometry>
        </mxCell>
        <mxCell id="XplwRi0R-BkFfsx55WH8-1" value="&lt;font style=&quot;vertical-align: inherit&quot;&gt;&lt;font style=&quot;vertical-align: inherit&quot;&gt;SI ACCOUNT CODE&lt;br&gt;&lt;/font&gt;&lt;/font&gt;" style="text;html=1;align=center;verticalAlign=middle;resizable=0;points=[];autosize=1;fillColor=#f8cecc;strokeColor=#b85450;" parent="1" vertex="1">
          <mxGeometry x="16" y="650" width="130" height="20" as="geometry" />
        </mxCell>
        <mxCell id="XplwRi0R-BkFfsx55WH8-11" value="" style="edgeStyle=orthogonalEdgeStyle;rounded=0;orthogonalLoop=1;jettySize=auto;html=1;" parent="1" source="XplwRi0R-BkFfsx55WH8-8" target="XplwRi0R-BkFfsx55WH8-10" edge="1">
          <mxGeometry relative="1" as="geometry" />
        </mxCell>
        <mxCell id="XplwRi0R-BkFfsx55WH8-8" value="&lt;font style=&quot;vertical-align: inherit&quot;&gt;&lt;font style=&quot;vertical-align: inherit&quot;&gt;Si fri_corporateid == &#39;&#39;&lt;br&gt;(viene del xml)&lt;br&gt;&lt;/font&gt;&lt;/font&gt;" style="text;html=1;align=center;verticalAlign=middle;resizable=0;points=[];autosize=1;fillColor=#f8cecc;strokeColor=#b85450;" parent="1" vertex="1">
          <mxGeometry x="-164" y="876" width="130" height="30" as="geometry" />
        </mxCell>
        <mxCell id="XplwRi0R-BkFfsx55WH8-22" value="" style="edgeStyle=orthogonalEdgeStyle;rounded=0;orthogonalLoop=1;jettySize=auto;html=1;" parent="1" source="XplwRi0R-BkFfsx55WH8-10" target="XplwRi0R-BkFfsx55WH8-21" edge="1">
          <mxGeometry relative="1" as="geometry" />
        </mxCell>
        <mxCell id="XplwRi0R-BkFfsx55WH8-10" value="&lt;font style=&quot;vertical-align: inherit&quot;&gt;&lt;font style=&quot;vertical-align: inherit&quot;&gt;La regla &quot;.$idr.&quot; no se aplico &lt;br&gt;porque era para account codes&lt;br&gt;o se devolvio un account &lt;br&gt;code y el mismo no aplico&lt;br&gt;&lt;/font&gt;&lt;/font&gt;" style="text;html=1;align=center;verticalAlign=middle;resizable=0;points=[];autosize=1;fillColor=#fff2cc;strokeColor=#d6b656;" parent="1" vertex="1">
          <mxGeometry x="-189" y="936" width="180" height="60" as="geometry" />
        </mxCell>
        <mxCell id="XplwRi0R-BkFfsx55WH8-21" value="&lt;font style=&quot;vertical-align: inherit&quot;&gt;&lt;font style=&quot;vertical-align: inherit&quot;&gt;$aplica = &quot;no&quot;&lt;br&gt;&lt;/font&gt;&lt;/font&gt;" style="text;html=1;align=center;verticalAlign=middle;resizable=0;points=[];autosize=1;fillColor=#ffe6cc;strokeColor=#d79b00;" parent="1" vertex="1">
          <mxGeometry x="-144" y="1036" width="90" height="20" as="geometry" />
        </mxCell>
        <mxCell id="XplwRi0R-BkFfsx55WH8-19" value="" style="edgeStyle=orthogonalEdgeStyle;rounded=0;orthogonalLoop=1;jettySize=auto;html=1;" parent="1" source="XplwRi0R-BkFfsx55WH8-2" target="XplwRi0R-BkFfsx55WH8-18" edge="1">
          <mxGeometry relative="1" as="geometry" />
        </mxCell>
        <mxCell id="JvkbyAiaQJexJbuG7dHj-3" value="" style="edgeStyle=orthogonalEdgeStyle;rounded=0;orthogonalLoop=1;jettySize=auto;html=1;" parent="1" source="XplwRi0R-BkFfsx55WH8-2" edge="1">
          <mxGeometry relative="1" as="geometry">
            <mxPoint x="241" y="575" as="targetPoint" />
          </mxGeometry>
        </mxCell>
        <mxCell id="XplwRi0R-BkFfsx55WH8-2" value="&lt;font style=&quot;vertical-align: inherit&quot;&gt;&lt;font style=&quot;vertical-align: inherit&quot;&gt;NO ACCOUNT CODE&lt;br&gt;&lt;/font&gt;&lt;/font&gt;" style="text;html=1;align=center;verticalAlign=middle;resizable=0;points=[];autosize=1;fillColor=#f8cecc;strokeColor=#b85450;" parent="1" vertex="1">
          <mxGeometry x="176" y="650" width="130" height="20" as="geometry" />
        </mxCell>
        <mxCell id="XplwRi0R-BkFfsx55WH8-24" value="" style="edgeStyle=orthogonalEdgeStyle;rounded=0;orthogonalLoop=1;jettySize=auto;html=1;" parent="1" source="XplwRi0R-BkFfsx55WH8-18" target="XplwRi0R-BkFfsx55WH8-23" edge="1">
          <mxGeometry relative="1" as="geometry" />
        </mxCell>
        <mxCell id="XplwRi0R-BkFfsx55WH8-30" value="" style="edgeStyle=orthogonalEdgeStyle;rounded=0;orthogonalLoop=1;jettySize=auto;html=1;" parent="1" source="XplwRi0R-BkFfsx55WH8-18" target="XplwRi0R-BkFfsx55WH8-28" edge="1">
          <mxGeometry relative="1" as="geometry">
            <mxPoint x="566" y="716" as="targetPoint" />
          </mxGeometry>
        </mxCell>
        <mxCell id="XplwRi0R-BkFfsx55WH8-18" value="&lt;font style=&quot;vertical-align: inherit&quot;&gt;&lt;font style=&quot;vertical-align: inherit&quot;&gt;if (($ttar&amp;lt;&amp;gt;&quot;NEG&quot;) &lt;br&gt;and ($tiporeg==&quot;1&quot;)){&lt;br&gt;&lt;/font&gt;&lt;/font&gt;" style="text;html=1;align=center;verticalAlign=middle;resizable=0;points=[];autosize=1;fillColor=#f8cecc;strokeColor=#b85450;" parent="1" vertex="1">
          <mxGeometry x="246" y="701" width="130" height="30" as="geometry" />
        </mxCell>
        <mxCell id="XplwRi0R-BkFfsx55WH8-26" value="" style="edgeStyle=orthogonalEdgeStyle;rounded=0;orthogonalLoop=1;jettySize=auto;html=1;" parent="1" source="XplwRi0R-BkFfsx55WH8-23" target="XplwRi0R-BkFfsx55WH8-25" edge="1">
          <mxGeometry relative="1" as="geometry" />
        </mxCell>
        <mxCell id="XplwRi0R-BkFfsx55WH8-23" value="&lt;font style=&quot;vertical-align: inherit&quot;&gt;&lt;font style=&quot;vertical-align: inherit&quot;&gt;La regla &quot;.$idr.&quot; no se aplico porque &lt;br&gt;era sólo para tarifas negociadas &lt;br&gt;y el itinerario no tenía tarifas negociadas&quot;&lt;br&gt;&lt;/font&gt;&lt;/font&gt;" style="text;html=1;align=center;verticalAlign=middle;resizable=0;points=[];autosize=1;fillColor=#fff2cc;strokeColor=#d6b656;direction=west;" parent="1" vertex="1">
          <mxGeometry x="191" y="756" width="240" height="50" as="geometry" />
        </mxCell>
        <mxCell id="XplwRi0R-BkFfsx55WH8-25" value="&lt;font style=&quot;vertical-align: inherit&quot;&gt;&lt;font style=&quot;vertical-align: inherit&quot;&gt;$aplica = &quot;no&quot;&lt;br&gt;&lt;/font&gt;&lt;/font&gt;" style="text;html=1;align=center;verticalAlign=middle;resizable=0;points=[];autosize=1;fillColor=#ffe6cc;strokeColor=#d79b00;direction=west;" parent="1" vertex="1">
          <mxGeometry x="266" y="836" width="90" height="20" as="geometry" />
        </mxCell>
        <mxCell id="XplwRi0R-BkFfsx55WH8-7" value="Llenar el&amp;nbsp;$accountco&lt;br&gt;desmartin&lt;br&gt;, en un array" style="text;html=1;align=center;verticalAlign=middle;resizable=0;points=[];autosize=1;fillColor=#dae8fc;strokeColor=#6c8ebf;" parent="1" vertex="1">
          <mxGeometry x="-74" y="756" width="130" height="50" as="geometry" />
        </mxCell>
        <mxCell id="XplwRi0R-BkFfsx55WH8-12" value="" style="endArrow=classic;html=1;" parent="1" edge="1">
          <mxGeometry width="50" height="50" relative="1" as="geometry">
            <mxPoint x="76" y="816" as="sourcePoint" />
            <mxPoint x="76" y="866" as="targetPoint" />
            <Array as="points" />
          </mxGeometry>
        </mxCell>
        <mxCell id="XplwRi0R-BkFfsx55WH8-16" value="" style="edgeStyle=orthogonalEdgeStyle;rounded=0;orthogonalLoop=1;jettySize=auto;html=1;" parent="1" source="XplwRi0R-BkFfsx55WH8-14" edge="1">
          <mxGeometry relative="1" as="geometry">
            <mxPoint x="96" y="916" as="targetPoint" />
            <Array as="points">
              <mxPoint x="96" y="906" />
            </Array>
          </mxGeometry>
        </mxCell>
        <mxCell id="XplwRi0R-BkFfsx55WH8-14" value="if ($_SESSION[&quot;regla_de_&lt;br&gt;account_code&quot;]==$row3[&quot;eidregla&quot;])" style="text;html=1;align=center;verticalAlign=middle;resizable=0;points=[];autosize=1;fillColor=#f8cecc;strokeColor=#b85450;" parent="1" vertex="1">
          <mxGeometry x="-9" y="856" width="210" height="30" as="geometry" />
        </mxCell>
        <mxCell id="XplwRi0R-BkFfsx55WH8-17" value="La regla &quot;.$idr.&quot; puede ser &lt;br&gt;aplicada pues es para &lt;br&gt;account codes y se &lt;br&gt;devolvio que puede ser usada" style="text;html=1;align=center;verticalAlign=middle;resizable=0;points=[];autosize=1;fillColor=#fff2cc;strokeColor=#d6b656;" parent="1" vertex="1">
          <mxGeometry x="6" y="906" width="180" height="60" as="geometry" />
        </mxCell>
        <mxCell id="S2YXEUQFtzJFT1U0F4bR-2" value="" style="edgeStyle=orthogonalEdgeStyle;rounded=0;orthogonalLoop=1;jettySize=auto;html=1;" parent="1" source="XplwRi0R-BkFfsx55WH8-28" target="S2YXEUQFtzJFT1U0F4bR-1" edge="1">
          <mxGeometry relative="1" as="geometry" />
        </mxCell>
        <mxCell id="S2YXEUQFtzJFT1U0F4bR-6" value="" style="edgeStyle=orthogonalEdgeStyle;rounded=0;orthogonalLoop=1;jettySize=auto;html=1;" parent="1" source="XplwRi0R-BkFfsx55WH8-28" target="S2YXEUQFtzJFT1U0F4bR-5" edge="1">
          <mxGeometry relative="1" as="geometry" />
        </mxCell>
        <mxCell id="XplwRi0R-BkFfsx55WH8-28" value="if ((($ttar==&quot;NEG&quot;) &lt;br&gt;or ($espriv==&quot;true&quot;)) &lt;br&gt;and ($tiporeg==&quot;0&quot;)){" style="text;html=1;align=center;verticalAlign=middle;resizable=0;points=[];autosize=1;fillColor=#f8cecc;strokeColor=#b85450;" parent="1" vertex="1">
          <mxGeometry x="489" y="691" width="130" height="50" as="geometry" />
        </mxCell>
        <mxCell id="S2YXEUQFtzJFT1U0F4bR-8" value="" style="edgeStyle=orthogonalEdgeStyle;rounded=0;orthogonalLoop=1;jettySize=auto;html=1;" parent="1" source="S2YXEUQFtzJFT1U0F4bR-5" target="S2YXEUQFtzJFT1U0F4bR-7" edge="1">
          <mxGeometry relative="1" as="geometry" />
        </mxCell>
        <mxCell id="S2YXEUQFtzJFT1U0F4bR-5" value="&lt;font style=&quot;vertical-align: inherit&quot;&gt;&lt;font style=&quot;vertical-align: inherit&quot;&gt;&lt;font style=&quot;vertical-align: inherit&quot;&gt;&lt;font style=&quot;vertical-align: inherit&quot;&gt;if (($ espriv &amp;lt;&amp;gt; &quot;true&quot;) &lt;br&gt;y ($ tiporeg == &quot;3&quot;)) {&lt;/font&gt;&lt;/font&gt;&lt;/font&gt;&lt;/font&gt;" style="text;html=1;align=center;verticalAlign=middle;resizable=0;points=[];autosize=1;fillColor=#f8cecc;strokeColor=#b85450;" parent="1" vertex="1">
          <mxGeometry x="746" y="701" width="130" height="30" as="geometry" />
        </mxCell>
        <mxCell id="S2YXEUQFtzJFT1U0F4bR-10" value="" style="edgeStyle=orthogonalEdgeStyle;rounded=0;orthogonalLoop=1;jettySize=auto;html=1;" parent="1" source="S2YXEUQFtzJFT1U0F4bR-7" target="S2YXEUQFtzJFT1U0F4bR-9" edge="1">
          <mxGeometry relative="1" as="geometry" />
        </mxCell>
        <mxCell id="S2YXEUQFtzJFT1U0F4bR-7" value="&lt;font style=&quot;vertical-align: inherit&quot;&gt;&lt;font style=&quot;vertical-align: inherit&quot;&gt;&lt;font style=&quot;vertical-align: inherit&quot;&gt;&lt;font style=&quot;vertical-align: inherit&quot;&gt;La regla &quot;. $ Idr&quot;. &lt;/font&gt;&lt;/font&gt;&lt;/font&gt;&lt;font style=&quot;vertical-align: inherit&quot;&gt;&lt;font style=&quot;vertical-align: inherit&quot;&gt;&lt;font style=&quot;vertical-align: inherit&quot;&gt;no se aplico porque era &lt;br&gt;solo para tarifas privadas y el itinerario no devolvió &lt;br&gt;tarifas privadas&lt;/font&gt;&lt;/font&gt;&lt;/font&gt;&lt;/font&gt;" style="text;html=1;align=center;verticalAlign=middle;resizable=0;points=[];autosize=1;fillColor=#fff2cc;strokeColor=#d6b656;" parent="1" vertex="1">
          <mxGeometry x="716" y="756" width="280" height="50" as="geometry" />
        </mxCell>
        <mxCell id="S2YXEUQFtzJFT1U0F4bR-9" value="$aplica = &quot;no&quot;" style="text;html=1;align=center;verticalAlign=middle;resizable=0;points=[];autosize=1;fillColor=#ffe6cc;strokeColor=#d79b00;" parent="1" vertex="1">
          <mxGeometry x="811" y="836" width="90" height="20" as="geometry" />
        </mxCell>
        <mxCell id="S2YXEUQFtzJFT1U0F4bR-4" value="" style="edgeStyle=orthogonalEdgeStyle;rounded=0;orthogonalLoop=1;jettySize=auto;html=1;" parent="1" source="S2YXEUQFtzJFT1U0F4bR-1" target="S2YXEUQFtzJFT1U0F4bR-3" edge="1">
          <mxGeometry relative="1" as="geometry" />
        </mxCell>
        <mxCell id="S2YXEUQFtzJFT1U0F4bR-1" value="&lt;font style=&quot;vertical-align: inherit&quot;&gt;&lt;font style=&quot;vertical-align: inherit&quot;&gt;&lt;font style=&quot;vertical-align: inherit&quot;&gt;&lt;font style=&quot;vertical-align: inherit&quot;&gt;La regla &quot;. $ Idr&quot;. &lt;/font&gt;&lt;/font&gt;&lt;/font&gt;&lt;font style=&quot;vertical-align: inherit&quot;&gt;&lt;font style=&quot;vertical-align: inherit&quot;&gt;&lt;font style=&quot;vertical-align: inherit&quot;&gt;no se aplico porque&lt;br&gt;era solo para tarifas normales y el itinerario&lt;br&gt;devolvió tarifas negociadas o privadas &quot;&lt;/font&gt;&lt;/font&gt;&lt;/font&gt;&lt;/font&gt;" style="text;html=1;align=center;verticalAlign=middle;resizable=0;points=[];autosize=1;fillColor=#fff2cc;strokeColor=#d6b656;" parent="1" vertex="1">
          <mxGeometry x="446" y="756" width="250" height="50" as="geometry" />
        </mxCell>
        <mxCell id="S2YXEUQFtzJFT1U0F4bR-3" value="&lt;font style=&quot;vertical-align: inherit&quot;&gt;&lt;font style=&quot;vertical-align: inherit&quot;&gt;$aplica = &quot;no&quot;&lt;/font&gt;&lt;/font&gt;" style="text;html=1;align=center;verticalAlign=middle;resizable=0;points=[];autosize=1;fillColor=#ffe6cc;strokeColor=#d79b00;" parent="1" vertex="1">
          <mxGeometry x="526" y="836" width="90" height="20" as="geometry" />
        </mxCell>
        <mxCell id="S2YXEUQFtzJFT1U0F4bR-14" value="" style="edgeStyle=orthogonalEdgeStyle;rounded=0;orthogonalLoop=1;jettySize=auto;html=1;" parent="1" source="S2YXEUQFtzJFT1U0F4bR-12" target="S2YXEUQFtzJFT1U0F4bR-13" edge="1">
          <mxGeometry relative="1" as="geometry" />
        </mxCell>
        <mxCell id="S2YXEUQFtzJFT1U0F4bR-16" value="" style="edgeStyle=orthogonalEdgeStyle;rounded=0;orthogonalLoop=1;jettySize=auto;html=1;" parent="1" source="S2YXEUQFtzJFT1U0F4bR-12" target="S2YXEUQFtzJFT1U0F4bR-15" edge="1">
          <mxGeometry relative="1" as="geometry" />
        </mxCell>
        <mxCell id="S2YXEUQFtzJFT1U0F4bR-12" value="IF sizeof vec_companias&amp;nbsp;&lt;span&gt;&amp;amp;&amp;amp; if (in_array($aero,&amp;nbsp;&lt;/span&gt;&lt;br&gt;$vec_companias)==false) {" style="text;html=1;align=center;verticalAlign=middle;resizable=0;points=[];autosize=1;fillColor=#f8cecc;strokeColor=#b85450;" parent="1" vertex="1">
          <mxGeometry x="221" y="906" width="270" height="30" as="geometry" />
        </mxCell>
        <mxCell id="S2YXEUQFtzJFT1U0F4bR-15" value="$razon = &quot;La compañia &lt;br&gt;no estaba en &lt;br&gt;el vector de compañias&quot;" style="text;html=1;align=center;verticalAlign=middle;resizable=0;points=[];autosize=1;fillColor=#ffe6cc;strokeColor=#d79b00;" parent="1" vertex="1">
          <mxGeometry x="366" y="1106" width="140" height="50" as="geometry" />
        </mxCell>
        <mxCell id="S2YXEUQFtzJFT1U0F4bR-13" value="$aplica = &quot;np&quot;;" style="text;html=1;align=center;verticalAlign=middle;resizable=0;points=[];autosize=1;fillColor=#ffe6cc;strokeColor=#d79b00;" parent="1" vertex="1">
          <mxGeometry x="226" y="1106" width="90" height="20" as="geometry" />
        </mxCell>
        <mxCell id="S2YXEUQFtzJFT1U0F4bR-17" value="La regla &quot;.$idr.&quot; no se aplico porque la compania &quot;.$aero.&quot; &lt;br&gt;del itinerario no estaba en el vector de &lt;br&gt;companias, que tenia las siguientes companias: &quot;.$com" style="text;html=1;align=center;verticalAlign=middle;resizable=0;points=[];autosize=1;fillColor=#fff2cc;strokeColor=#d6b656;" parent="1" vertex="1">
          <mxGeometry x="216" y="956" width="320" height="50" as="geometry" />
        </mxCell>
        <mxCell id="S2YXEUQFtzJFT1U0F4bR-18" value="" style="endArrow=none;html=1;entryX=0.123;entryY=1.217;entryDx=0;entryDy=0;entryPerimeter=0;exitX=0.317;exitY=0.011;exitDx=0;exitDy=0;exitPerimeter=0;" parent="1" source="S2YXEUQFtzJFT1U0F4bR-12" target="XplwRi0R-BkFfsx55WH8-2" edge="1">
          <mxGeometry width="50" height="50" relative="1" as="geometry">
            <mxPoint x="376" y="886" as="sourcePoint" />
            <mxPoint x="426" y="836" as="targetPoint" />
            <Array as="points">
              <mxPoint x="266" y="876" />
              <mxPoint x="156" y="816" />
              <mxPoint x="176" y="806" />
            </Array>
          </mxGeometry>
        </mxCell>
        <mxCell id="S2YXEUQFtzJFT1U0F4bR-19" value="IF size vec_destinos &amp;amp;&amp;amp;&lt;br&gt;if (in_array($_SESSION[&quot;allegada&quot;],&lt;br&gt;$vec_destinos)==false)" style="text;html=1;align=center;verticalAlign=middle;resizable=0;points=[];autosize=1;fillColor=#f8cecc;strokeColor=#b85450;" parent="1" vertex="1">
          <mxGeometry x="601" y="906" width="210" height="50" as="geometry" />
        </mxCell>
        <mxCell id="S2YXEUQFtzJFT1U0F4bR-24" value="" style="edgeStyle=orthogonalEdgeStyle;rounded=0;orthogonalLoop=1;jettySize=auto;html=1;" parent="1" source="S2YXEUQFtzJFT1U0F4bR-21" target="S2YXEUQFtzJFT1U0F4bR-23" edge="1">
          <mxGeometry relative="1" as="geometry" />
        </mxCell>
        <mxCell id="S2YXEUQFtzJFT1U0F4bR-21" value="La regla &quot;.$idr.&quot; no se aplico porque el destino &lt;br&gt;&quot;.$_SESSION[&quot;allegada&quot;].&quot; del&lt;br&gt;&amp;nbsp;itinerario&amp;nbsp; no estaba en el vector de destinos, &lt;br&gt;que tenia los siguientes destinos: &quot;.$des;" style="text;html=1;align=center;verticalAlign=middle;resizable=0;points=[];autosize=1;fillColor=#fff2cc;strokeColor=#d6b656;" parent="1" vertex="1">
          <mxGeometry x="596" y="976" width="260" height="60" as="geometry" />
        </mxCell>
        <mxCell id="S2YXEUQFtzJFT1U0F4bR-23" value="$aplica = &quot;no&quot;" style="text;html=1;align=center;verticalAlign=middle;resizable=0;points=[];autosize=1;fillColor=#ffe6cc;strokeColor=#d79b00;" parent="1" vertex="1">
          <mxGeometry x="576" y="1106" width="90" height="20" as="geometry" />
        </mxCell>
        <mxCell id="S2YXEUQFtzJFT1U0F4bR-22" value="" style="endArrow=none;html=1;exitX=0.503;exitY=0.987;exitDx=0;exitDy=0;exitPerimeter=0;entryX=0.426;entryY=0.033;entryDx=0;entryDy=0;entryPerimeter=0;" parent="1" source="S2YXEUQFtzJFT1U0F4bR-19" target="S2YXEUQFtzJFT1U0F4bR-21" edge="1">
          <mxGeometry width="50" height="50" relative="1" as="geometry">
            <mxPoint x="696" y="876" as="sourcePoint" />
            <mxPoint x="776" y="856" as="targetPoint" />
          </mxGeometry>
        </mxCell>
        <mxCell id="S2YXEUQFtzJFT1U0F4bR-25" value="$razon = &quot;El destino &lt;br&gt;no estaba en el vector de destinos&quot;" style="text;html=1;align=center;verticalAlign=middle;resizable=0;points=[];autosize=1;fillColor=#ffe6cc;strokeColor=#d79b00;" parent="1" vertex="1">
          <mxGeometry x="726" y="1106" width="200" height="30" as="geometry" />
        </mxCell>
        <mxCell id="S2YXEUQFtzJFT1U0F4bR-27" value="" style="endArrow=classic;html=1;exitX=0.764;exitY=1.078;exitDx=0;exitDy=0;exitPerimeter=0;entryX=0.523;entryY=0.044;entryDx=0;entryDy=0;entryPerimeter=0;" parent="1" source="S2YXEUQFtzJFT1U0F4bR-21" target="S2YXEUQFtzJFT1U0F4bR-25" edge="1">
          <mxGeometry width="50" height="50" relative="1" as="geometry">
            <mxPoint x="696" y="876" as="sourcePoint" />
            <mxPoint x="746" y="826" as="targetPoint" />
          </mxGeometry>
        </mxCell>
        <mxCell id="JvkbyAiaQJexJbuG7dHj-1" value="" style="endArrow=classic;html=1;exitX=0.308;exitY=0.8;exitDx=0;exitDy=0;exitPerimeter=0;entryX=0.389;entryY=-0.08;entryDx=0;entryDy=0;entryPerimeter=0;" parent="1" source="XplwRi0R-BkFfsx55WH8-2" target="S2YXEUQFtzJFT1U0F4bR-19" edge="1">
          <mxGeometry width="50" height="50" relative="1" as="geometry">
            <mxPoint x="456" y="1146" as="sourcePoint" />
            <mxPoint x="506" y="1096" as="targetPoint" />
          </mxGeometry>
        </mxCell>
        <mxCell id="JvkbyAiaQJexJbuG7dHj-6" value="" style="edgeStyle=orthogonalEdgeStyle;rounded=0;orthogonalLoop=1;jettySize=auto;html=1;" parent="1" source="JvkbyAiaQJexJbuG7dHj-4" target="JvkbyAiaQJexJbuG7dHj-5" edge="1">
          <mxGeometry relative="1" as="geometry" />
        </mxCell>
        <mxCell id="je8Y1S24qYHG2khaOnxY-2" value="" style="edgeStyle=orthogonalEdgeStyle;rounded=0;orthogonalLoop=1;jettySize=auto;html=1;strokeColor=#000000;" parent="1" source="JvkbyAiaQJexJbuG7dHj-4" target="je8Y1S24qYHG2khaOnxY-1" edge="1">
          <mxGeometry relative="1" as="geometry" />
        </mxCell>
        <mxCell id="JvkbyAiaQJexJbuG7dHj-4" value="IF ((sizeof($vec_clases)&amp;gt;0) &lt;br&gt;and (trim($vec_clases[0])&amp;lt;&amp;gt;&quot;&quot;)){ &lt;br&gt;&amp;amp;&amp;amp; &lt;br&gt;IF(in_array($_SESSION&lt;br&gt;[&quot;miclase&quot;],$vec_clases)==false)" style="text;html=1;align=center;verticalAlign=middle;resizable=0;points=[];autosize=1;fillColor=#f8cecc;strokeColor=#b85450;" parent="1" vertex="1">
          <mxGeometry x="150" y="525" width="190" height="70" as="geometry" />
        </mxCell>
        <mxCell id="je8Y1S24qYHG2khaOnxY-1" value="IF ((sizeof($vec_clases)&amp;gt;0) &lt;br&gt;and (trim($vec_clases[0])&amp;lt;&amp;gt;&quot;&quot;)){ &lt;br&gt;&amp;amp;&amp;amp; &lt;br&gt;IF(in_array($_SESSION&lt;br&gt;[&quot;miclase&quot;],$vec_clases)==false)" style="text;html=1;align=center;verticalAlign=middle;resizable=0;points=[];autosize=1;fillColor=#f8cecc;strokeColor=#b85450;" parent="1" vertex="1">
          <mxGeometry x="-120" y="525" width="190" height="70" as="geometry" />
        </mxCell>
        <mxCell id="JvkbyAiaQJexJbuG7dHj-5" value="$aplica = &quot;no&quot;" style="text;html=1;align=center;verticalAlign=middle;resizable=0;points=[];autosize=1;fillColor=#ffe6cc;strokeColor=#d79b00;" parent="1" vertex="1">
          <mxGeometry x="86" y="320" width="90" height="20" as="geometry" />
        </mxCell>
        <mxCell id="JvkbyAiaQJexJbuG7dHj-7" value="" style="endArrow=classic;html=1;exitX=0.677;exitY=-0.005;exitDx=0;exitDy=0;exitPerimeter=0;entryX=0.467;entryY=1.044;entryDx=0;entryDy=0;entryPerimeter=0;fillColor=#f8cecc;strokeColor=#000000;" parent="1" source="JvkbyAiaQJexJbuG7dHj-4" target="JvkbyAiaQJexJbuG7dHj-9" edge="1">
          <mxGeometry width="50" height="50" relative="1" as="geometry">
            <mxPoint x="390" y="690" as="sourcePoint" />
            <mxPoint x="279" y="500" as="targetPoint" />
          </mxGeometry>
        </mxCell>
        <mxCell id="JvkbyAiaQJexJbuG7dHj-9" value="$razon = &quot;La clase no &lt;br&gt;estaba en el vector de clases&quot;" style="text;html=1;align=center;verticalAlign=middle;resizable=0;points=[];autosize=1;fillColor=#ffe6cc;strokeColor=#d79b00;" parent="1" vertex="1">
          <mxGeometry x="191" y="320" width="180" height="30" as="geometry" />
        </mxCell>
        <mxCell id="JvkbyAiaQJexJbuG7dHj-11" value="La regla &quot;.$idr.&quot; no se aplico porque la clase &lt;br&gt;&quot;.$_SESSION[&quot;miclase&quot;].&quot; del itinerario &lt;br&gt;no estaba en el vector de clases, que tenia los siguientes &lt;br&gt;clases: &quot;.$cla;" style="text;html=1;align=center;verticalAlign=middle;resizable=0;points=[];autosize=1;fillColor=#fff2cc;strokeColor=#d6b656;" parent="1" vertex="1">
          <mxGeometry x="110" y="411" width="320" height="60" as="geometry" />
        </mxCell>
        <mxCell id="JvkbyAiaQJexJbuG7dHj-12" value="" style="endArrow=classic;html=1;strokeColor=#000000;exitX=0.328;exitY=-0.2;exitDx=0;exitDy=0;exitPerimeter=0;entryX=0.464;entryY=0.967;entryDx=0;entryDy=0;entryPerimeter=0;" parent="1" source="XplwRi0R-BkFfsx55WH8-1" target="JvkbyAiaQJexJbuG7dHj-13" edge="1">
          <mxGeometry width="50" height="50" relative="1" as="geometry">
            <mxPoint x="250" y="690" as="sourcePoint" />
            <mxPoint x="460" y="540" as="targetPoint" />
          </mxGeometry>
        </mxCell>
        <mxCell id="JvkbyAiaQJexJbuG7dHj-13" value="SI LA FECHA DE SALIDA Y LA FECHA DE LLEGADA&lt;br&gt;&amp;nbsp;ESTAN DENTRO DEL RANGO DE LA REGLA" style="text;html=1;align=center;verticalAlign=middle;resizable=0;points=[];autosize=1;fillColor=#fff2cc;strokeColor=#d6b656;" parent="1" vertex="1">
          <mxGeometry x="-430" y="530" width="300" height="30" as="geometry" />
        </mxCell>
        <mxCell id="JvkbyAiaQJexJbuG7dHj-14" value="$razon = &quot;No esta dentro del rango de fecha&quot;" style="text;html=1;align=center;verticalAlign=middle;resizable=0;points=[];autosize=1;fillColor=#ffe6cc;strokeColor=#d79b00;" parent="1" vertex="1">
          <mxGeometry x="-294" y="417" width="260" height="20" as="geometry" />
        </mxCell>
        <mxCell id="JvkbyAiaQJexJbuG7dHj-15" value="$aplica = &quot;no&quot;" style="text;html=1;align=center;verticalAlign=middle;resizable=0;points=[];autosize=1;fillColor=#ffe6cc;strokeColor=#d79b00;" parent="1" vertex="1">
          <mxGeometry x="-400" y="417" width="90" height="20" as="geometry" />
        </mxCell>
        <mxCell id="JvkbyAiaQJexJbuG7dHj-16" value="" style="edgeStyle=orthogonalEdgeStyle;rounded=0;orthogonalLoop=1;jettySize=auto;html=1;" parent="1" edge="1">
          <mxGeometry relative="1" as="geometry">
            <mxPoint x="-375" y="530" as="sourcePoint" />
            <mxPoint x="-375" y="440.5" as="targetPoint" />
            <Array as="points">
              <mxPoint x="-375" y="502" />
              <mxPoint x="-375" y="502" />
            </Array>
          </mxGeometry>
        </mxCell>
        <mxCell id="JvkbyAiaQJexJbuG7dHj-17" value="" style="endArrow=classic;html=1;strokeColor=#000000;exitX=0.638;exitY=0.033;exitDx=0;exitDy=0;exitPerimeter=0;entryX=0.374;entryY=1.144;entryDx=0;entryDy=0;entryPerimeter=0;" parent="1" source="JvkbyAiaQJexJbuG7dHj-13" target="JvkbyAiaQJexJbuG7dHj-14" edge="1">
          <mxGeometry width="50" height="50" relative="1" as="geometry">
            <mxPoint x="590" y="290" as="sourcePoint" />
            <mxPoint x="640" y="240" as="targetPoint" />
          </mxGeometry>
        </mxCell>
        <mxCell id="je8Y1S24qYHG2khaOnxY-4" value="PREGUNTAR SI PARA APLICAR ESTO, TODOS LOS VUELOS DEL &lt;br&gt;ITINERARIO TIENEN QUE SER DE LA MISMA AEROLINEA" style="text;html=1;align=center;verticalAlign=middle;resizable=0;points=[];autosize=1;fillColor=#d80073;strokeColor=#A50040;fontColor=#ffffff;" parent="1" vertex="1">
          <mxGeometry x="-440" y="661" width="380" height="30" as="geometry" />
        </mxCell>
        <mxCell id="KW22E9luIcc3XNNiZIY2-1" value="&lt;div&gt;$ttar=$x //ADT, NEG?&lt;/div&gt;&lt;div&gt;$tiporegla=$row3[&quot;tipo_cargo&quot;]; // &#39;MARK UP 0&#39;, &#39;DESCUENTO 1&#39;, &#39;SERVICE FEE 2&lt;span&gt;&#39;&lt;/span&gt;&lt;/div&gt;" style="text;html=1;align=left;verticalAlign=middle;resizable=0;points=[];autosize=1;fillColor=#d5e8d4;strokeColor=#82b366;" parent="1" vertex="1">
          <mxGeometry x="466" y="580" width="460" height="30" as="geometry" />
        </mxCell>
      </root>
    </mxGraphModel>
  </diagram>
</mxfile>
